# xmcd
#
# Track frame offsets:
#	150
#	27279
#	52085
#	71345
#	94777
#	113724
#	139070
#	164242
#	187892
#	210780
#	239089
#	261814
#	282381
#	309391
#
# Disc length: 4299 seconds
#
# Revision: 10
# Processed by: cddbd v1.5.2PL0 Copyright (c) Steve Scherf et al.
# Submitted via: audiograbber 1.83.01
#
DISCID=ca10c90e
DTITLE=Mark Knopfler - Down The Road Wherever
DYEAR=2018
DGENRE=Blues
TTITLE0=Trapper man
TTITLE1=Back on the dance floor
TTITLE2=Nobody's child
TTITLE3=Just a boy away from home
TTITLE4=When you leave
TTITLE5=Good on you son
TTITLE6=My bacon roll
TTITLE7=Nobody does that
TTITLE8=Drovers' road
TTITLE9=One song at a time
TTITLE10=Floating away
TTITLE11=Slow learner
TTITLE12=Heavy up
TTITLE13=Matchstick man
EXTD=YEAR: 2018
EXTT0=
EXTT1=
EXTT2=
EXTT3=
EXTT4=
EXTT5=
EXTT6=
EXTT7=
EXTT8=
EXTT9=
EXTT10=
EXTT11=
EXTT12=
EXTT13=
PLAYORDER=
